<svg width="349" height="63" viewBox="0 0 349 63" fill="none" xmlns="http://www.w3.org/2000/svg">
<path d="M31.626 62.9258C49.0025 62.9258 63.0889 48.8394 63.0889 31.4629C63.0889 14.0864 49.0025 0 31.626 0C14.2495 0 0.163116 14.0864 0.163116 31.4629C0.163116 48.8394 14.2495 62.9258 31.626 62.9258Z" fill="#58AF31"/>
<path fill-rule="evenodd" clip-rule="evenodd" d="M53.2029 21.9715L27.5315 47.6475L12.5693 32.6852L17.1176 28.1369L27.5311 38.5504L48.6542 17.4235L53.2029 21.9715Z" fill="white"/>
<path d="M88.8339 42.4629H85.1889V20.8629H93.7239C98.8239 20.8629 101.374 23.4879 101.374 27.8979C101.374 32.2929 98.8089 34.9179 93.7239 34.9179H88.8339V42.4629ZM88.8339 24.2529V31.5429H93.6939C96.3039 31.5429 97.7289 30.2379 97.7289 27.8979C97.7289 25.5429 96.3039 24.2529 93.6939 24.2529H88.8339ZM111.563 39.5829C113.408 39.5829 114.608 38.8029 115.328 37.2729L118.898 38.2929C117.653 41.2329 114.983 42.9129 111.563 42.9129C106.718 42.9129 103.478 39.4179 103.478 34.3629C103.478 29.2479 106.778 25.8129 111.533 25.8129C116.693 25.8129 119.498 29.5329 119.078 35.3679H107.363C107.678 38.0379 109.193 39.5829 111.563 39.5829ZM107.453 32.6379H115.403C115.223 30.3579 113.798 29.0229 111.533 29.0229C109.343 29.0229 107.903 30.3429 107.453 32.6379ZM122.395 42.4629V26.2629H126.01V39.1029H131.725V26.2629H135.34V39.1029H141.055V26.2629H144.67V42.4629H122.395ZM156.065 39.5829C157.91 39.5829 159.11 38.8029 159.83 37.2729L163.4 38.2929C162.155 41.2329 159.485 42.9129 156.065 42.9129C151.22 42.9129 147.98 39.4179 147.98 34.3629C147.98 29.2479 151.28 25.8129 156.035 25.8129C161.195 25.8129 164 29.5329 163.58 35.3679H151.865C152.18 38.0379 153.695 39.5829 156.065 39.5829ZM151.955 32.6379H159.905C159.725 30.3579 158.3 29.0229 156.035 29.0229C153.845 29.0229 152.405 30.3429 151.955 32.6379ZM170.512 42.4629H166.897V26.2629H170.512V32.6829H177.787V26.2629H181.402V42.4629H177.787V36.0429H170.512V42.4629ZM196.014 26.2629H199.629V42.4629H196.014V31.8129L189.174 42.4629H185.559V26.2629H189.174V36.9129L196.014 26.2629ZM206.766 42.4629H202.986L206.091 36.3279C204.096 35.4429 203.166 33.6429 203.166 31.5879C203.166 28.6629 205.056 26.2629 209.181 26.2629H216.591V42.4629H212.991V36.9129H209.586L206.766 42.4629ZM212.991 29.1879H209.736C207.651 29.1879 206.796 30.2379 206.796 31.5879C206.796 32.9379 207.651 33.9879 209.736 33.9879H212.991V29.1879ZM225.61 46.0179V39.1029H227.185C228.28 37.8879 228.295 34.3779 228.295 31.7829V26.2629H241V39.1029H243.1V46.0179H239.485V42.4629H229.225V46.0179H225.61ZM230.92 39.1029H237.385V29.6229H231.625V33.5379C231.625 35.8479 231.355 37.8879 230.92 39.1029ZM244.587 42.6279V39.5529C244.842 39.6279 245.067 39.6579 245.277 39.6579C246.852 39.6579 247.317 37.6029 247.317 33.7029V26.2629H259.872V42.4629H256.257V29.6229H250.647V34.9629C250.647 40.4529 249.117 42.9129 246.357 42.9129C245.817 42.9129 245.232 42.8229 244.587 42.6279ZM267.001 42.4629H263.221L266.326 36.3279C264.331 35.4429 263.401 33.6429 263.401 31.5879C263.401 28.6629 265.291 26.2629 269.416 26.2629H276.826V42.4629H273.226V36.9129H269.821L267.001 42.4629ZM273.226 29.1879H269.971C267.886 29.1879 267.031 30.2379 267.031 31.5879C267.031 32.9379 267.886 33.9879 269.971 33.9879H273.226V29.1879ZM290.674 42.4629H287.044V20.8629H290.674V29.9529H300.889V20.8629H304.519V42.4629H300.889V33.3429H290.674V42.4629ZM308.724 42.4629V20.8629H312.369V30.9129L320.994 20.8629H325.434L316.149 31.4529L326.064 42.4629H321.474L312.369 32.3679V42.4629H308.724ZM336.404 42.9129C329.939 42.9129 326.069 38.3679 326.069 31.6629C326.069 24.9579 329.939 20.4129 336.404 20.4129C342.884 20.4129 346.754 24.9579 346.754 31.6629C346.754 38.3679 342.884 42.9129 336.404 42.9129ZM336.404 39.5079C340.754 39.5079 342.929 36.3879 342.929 31.6629C342.929 26.9379 340.754 23.8179 336.404 23.8179C332.054 23.8179 329.909 26.9379 329.894 31.6629C329.879 36.3879 332.054 39.5079 336.404 39.5079Z" fill="black"/>
</svg>
