<svg width="292" height="291" viewBox="0 0 292 291" fill="none" xmlns="http://www.w3.org/2000/svg">
<path d="M137.009 5.35029C141.291 -1.47476 151.236 -1.47475 155.517 5.35029C159.184 11.1956 167.285 12.219 172.291 7.46927C178.135 1.92347 187.767 4.39658 190.217 12.072C192.316 18.6457 199.907 21.6515 205.937 18.2958C212.977 14.3777 221.691 19.1686 222.156 27.2121C222.553 34.1011 229.159 38.9005 235.833 37.1497C243.627 35.1055 250.876 41.913 249.325 49.8193C247.997 56.5907 253.202 62.8821 260.102 62.8462C268.159 62.8043 273.487 71.2008 270.019 78.473C267.049 84.7013 270.525 92.0894 277.218 93.7708C285.032 95.7339 288.105 105.192 282.937 111.373C278.511 116.667 280.041 124.687 286.105 127.98C293.185 131.825 293.81 141.75 287.267 146.452C281.664 150.479 281.151 158.628 286.205 163.325C292.107 168.81 290.244 178.578 282.737 181.505C276.309 184.012 273.785 191.778 277.513 197.585C281.865 204.365 277.631 213.363 269.633 214.331C262.782 215.16 258.407 222.055 260.574 228.606C263.103 236.256 256.764 243.918 248.776 242.867C241.935 241.966 235.982 247.556 236.452 254.44C236.999 262.479 228.954 268.324 221.478 265.319C215.076 262.745 207.92 266.679 206.663 273.464C205.194 281.386 195.948 285.047 189.454 280.277C183.893 276.192 175.984 278.223 173.079 284.482C169.686 291.79 159.82 293.036 154.717 286.801C150.346 281.462 142.181 281.462 137.81 286.801C132.707 293.036 122.84 291.79 119.448 284.482C116.542 278.223 108.634 276.192 103.072 280.277C96.5787 285.047 87.3325 281.386 85.8639 273.464C84.6061 266.679 77.4509 262.745 71.0483 265.319C63.5727 268.324 55.5274 262.479 56.0751 254.44C56.5441 247.556 50.5919 241.966 43.7505 242.867C35.7625 243.918 29.4236 236.256 31.9531 228.606C34.1195 222.055 29.7444 215.16 22.894 214.331C14.8954 213.363 10.6612 204.365 15.0136 197.585C18.7413 191.778 16.2181 184.012 9.78916 181.505C2.28269 178.578 0.419267 168.81 6.32111 163.325C11.3758 158.628 10.8631 150.479 5.25951 146.452C-1.28321 141.75 -0.658777 131.825 6.42164 127.98C12.4857 124.687 14.0157 116.667 9.58966 111.373C4.42179 105.192 7.49483 95.7339 15.3089 93.7708C22.0014 92.0894 25.478 84.7013 22.5075 78.473C19.0392 71.2008 24.3678 62.8043 32.4246 62.8462C39.3249 62.8821 44.5296 56.5907 43.2014 49.8193C41.6506 41.913 48.8998 35.1055 56.6932 37.1497C63.3678 38.9005 69.9735 34.1011 70.371 27.2121C70.8352 19.1686 79.5496 14.3777 86.5897 18.2958C92.6192 21.6515 100.211 18.6457 102.309 12.072C104.759 4.39658 114.391 1.92347 120.236 7.46927C125.241 12.219 133.342 11.1956 137.009 5.35029Z" fill="#58AF31"/>
<path d="M183.511 215.238C188.529 215.855 190.611 218.593 189.976 223.77L188.747 233.775L184.428 233.244L184.687 231.132C183.379 232.729 181.542 233.374 179.065 233.069C175.65 232.65 173.605 230.271 173.987 227.159C174.391 223.871 176.886 222.195 181.417 222.187L185.787 222.175C185.907 220.272 184.953 219.252 183.047 219.018C181.173 218.788 180.047 219.295 179.359 220.693L175.585 219.134C176.902 216.152 179.716 214.772 183.511 215.238ZM185.408 225.256L181.683 225.266C179.556 225.263 178.424 225.946 178.258 227.296C178.093 228.646 178.882 229.436 180.582 229.645C182.392 229.867 183.94 229.074 184.654 227.985C185.151 227.224 185.285 226.257 185.379 225.495L185.408 225.256Z" fill="white"/>
<path d="M166.18 231.004L161.861 230.474L163.475 217.324L158.012 216.653L158.504 212.652L173.749 214.523L173.258 218.525L167.795 217.855L166.18 231.004Z" fill="white"/>
<path d="M142.016 228.037L137.696 227.506L139.802 210.355L144.122 210.886L143.314 217.46L150.365 218.326L151.173 211.751L155.492 212.282L153.386 229.433L149.067 228.903L149.874 222.328L142.823 221.462L142.016 228.037Z" fill="white"/>
<path d="M128.363 208.467C133.381 209.083 135.463 211.821 134.827 216.998L133.599 227.003L129.279 226.473L129.538 224.361C128.23 225.957 126.394 226.602 123.916 226.298C120.502 225.879 118.457 223.5 118.839 220.387C119.243 217.1 121.738 215.424 126.268 215.416L130.638 215.404C130.759 213.501 129.804 212.481 127.899 212.247C126.025 212.017 124.899 212.523 124.211 213.922L120.437 212.362C121.754 209.381 124.567 208.001 128.363 208.467ZM130.26 218.485L126.535 218.495C124.407 218.492 123.276 219.175 123.11 220.525C122.944 221.875 123.734 222.665 125.433 222.873C127.244 223.096 128.792 222.302 129.506 221.213C130.002 220.452 130.137 219.485 130.231 218.723L130.26 218.485Z" fill="white"/>
<path d="M101.968 230.857L97.6485 230.327L100.69 205.553L105.01 206.083L104.751 208.195C105.95 206.698 107.673 205.927 110.118 206.227C114.502 206.765 117.408 210.926 116.757 216.231C116.102 221.566 112.279 224.869 107.896 224.331C105.45 224.031 103.965 222.865 103.163 221.122L101.968 230.857ZM107.438 220.18C110.201 220.52 111.82 218.623 112.183 215.669C112.558 212.62 111.402 210.479 108.67 210.144C105.844 209.797 104.324 211.673 103.957 214.659C103.579 217.74 104.738 219.849 107.438 220.18Z" fill="white"/>
<path d="M88.4818 221.464L84.1305 220.929L86.2364 203.778L97.6705 205.182L97.1791 209.184L90.0963 208.314L88.4818 221.464Z" fill="white"/>
<path d="M215.366 192.713L210.856 192.159L214.939 186.212C212.995 184.974 212.28 182.92 212.542 180.792C212.922 177.695 215.248 175.288 219.774 175.844L227.699 176.817L225.593 193.968L221.273 193.438L221.968 187.784L219.014 187.422L215.366 192.713ZM222.956 179.733L220.034 179.374C217.97 179.121 217.033 180.053 216.877 181.324C216.721 182.594 217.404 183.726 219.469 183.98L222.391 184.338L222.956 179.733Z" fill="white"/>
<path d="M205.145 174.048L209.465 174.578L207.359 191.73L203.039 191.199L204.334 180.654L196.369 190.38L192.05 189.85L194.156 172.699L198.475 173.229L197.181 183.774L205.145 174.048Z" fill="white"/>
<path d="M176.27 187.912L171.951 187.382L174.057 170.231L178.376 170.761L177.569 177.336L184.62 178.202L185.427 171.627L189.747 172.157L187.641 189.308L183.321 188.778L184.129 182.203L177.078 181.338L176.27 187.912Z" fill="white"/>
<path d="M160.806 182.467C162.569 182.684 163.78 182.139 164.628 180.744L168.804 182.45C167.115 185.434 164.003 186.89 160.319 186.437C155.141 185.802 152.108 181.625 152.759 176.321C153.418 170.953 157.46 167.709 162.541 168.333C168.1 169.016 170.59 173.416 169.302 179.577L157.264 178.099C157.327 180.605 158.583 182.194 160.806 182.467ZM157.785 174.907L165.312 175.831C165.403 173.779 164.201 172.406 162.073 172.145C160.041 171.895 158.547 172.904 157.785 174.907Z" fill="white"/>
<path d="M148.201 184.466L143.881 183.936L144.63 177.837C143.601 178.34 142 178.514 140.412 178.319C136.315 177.816 134.547 175.406 135.078 171.087L135.76 165.529L140.08 166.059L139.475 170.982C139.218 173.078 139.737 174.367 141.928 174.636C143.072 174.777 144.079 174.578 145.102 173.994L145.987 166.784L150.307 167.315L148.201 184.466Z" fill="white"/>
<path d="M121.751 188.956L117.749 188.464L121.529 181.046L116.693 163.187L121.172 163.737L124.249 175.963L130.16 164.841L134.48 165.371L121.751 188.956Z" fill="white"/>
<path d="M95.5619 178.164L96.0104 174.511C96.2706 174.624 96.5208 174.687 96.7431 174.714C98.363 174.913 99.0673 172.984 99.5528 169.03L100.514 161.201L114.14 162.874L112.034 180.025L107.714 179.495L109.329 166.345L103.993 165.69L103.328 171.106C102.63 176.791 100.589 179.103 97.5715 178.733C96.9363 178.655 96.2671 178.46 95.5619 178.164Z" fill="white"/>
<path d="M84.9161 177.179C79.7866 176.549 76.6995 172.414 77.3566 167.062C78.0118 161.726 82.0254 158.447 87.139 159.075C92.2843 159.707 95.3873 163.844 94.7302 169.196C94.073 174.547 90.0614 177.811 84.9161 177.179ZM85.4113 173.145C88.0158 173.465 89.7685 171.794 90.1565 168.634C90.5484 165.442 89.264 163.43 86.6437 163.109C84.0075 162.785 82.3261 164.4 81.9303 167.624C81.5384 170.816 82.8069 172.826 85.4113 173.145Z" fill="white"/>
<path d="M61.9725 173.878L57.6529 173.348L59.7589 156.197L74.9091 158.057L72.8032 175.208L68.4836 174.678L70.0981 161.529L63.587 160.729L61.9725 173.878Z" fill="white"/>
<path d="M241.736 151.62L233.811 150.647L235.917 133.496L240.237 134.026L239.543 139.68L243.148 140.122C247.674 140.678 249.349 143.576 248.969 146.673C248.589 149.769 246.262 152.176 241.736 151.62ZM238.554 147.731L241.476 148.09C243.541 148.344 244.477 147.411 244.633 146.14C244.789 144.87 244.106 143.738 242.042 143.485L239.12 143.126L238.554 147.731Z" fill="white"/>
<path d="M225.322 149.605L221.003 149.074L222.617 135.925L217.154 135.254L217.646 131.252L232.891 133.124L232.4 137.126L226.937 136.455L225.322 149.605Z" fill="white"/>
<path d="M206.573 147.786C201.237 147.131 198.541 142.834 199.172 137.689C199.812 132.48 203.619 129.047 208.859 129.69C212.893 130.185 215.546 132.736 215.876 136.355L211.416 136.968C211.126 135.127 209.889 133.911 208.301 133.716C205.569 133.381 204.097 135.392 203.746 138.251C203.379 141.236 204.464 143.433 207.068 143.753C209.006 143.99 210.04 143.182 210.751 141.593L215.053 143.056C213.62 146.588 210.543 148.274 206.573 147.786Z" fill="white"/>
<path d="M186.819 145.361C181.689 144.731 178.602 140.596 179.259 135.244C179.915 129.908 183.928 126.629 189.042 127.257C194.187 127.888 197.29 132.025 196.633 137.377C195.976 142.729 191.964 145.992 186.819 145.361ZM187.314 141.327C189.919 141.647 191.671 139.976 192.059 136.816C192.451 133.624 191.167 131.612 188.547 131.29C185.91 130.967 184.229 132.582 183.833 135.806C183.441 138.998 184.71 141.007 187.314 141.327Z" fill="white"/>
<path d="M163.348 141.995L159.029 141.465L161.134 124.314L165.454 124.844L164.647 131.419L171.698 132.284L172.505 125.71L176.825 126.24L174.719 143.391L170.399 142.861L171.206 136.286L164.155 135.421L163.348 141.995Z" fill="white"/>
<path d="M150.571 140.426L146.252 139.896L147.866 126.747L142.403 126.076L142.895 122.074L158.14 123.946L157.649 127.948L152.186 127.277L150.571 140.426Z" fill="white"/>
<path d="M127.537 137.598L123.027 137.044L127.11 131.098C125.167 129.86 124.452 127.805 124.713 125.677C125.093 122.58 127.42 120.174 131.946 120.73L139.87 121.703L137.765 138.854L133.445 138.324L134.139 132.67L131.185 132.307L127.537 137.598ZM135.128 124.619L132.206 124.26C130.141 124.006 129.205 124.939 129.049 126.21C128.893 127.48 129.576 128.612 131.64 128.865L134.562 129.224L135.128 124.619Z" fill="white"/>
<path d="M111.727 136.141C106.597 135.511 103.51 131.376 104.167 126.024C104.822 120.688 108.836 117.409 113.95 118.037C119.095 118.668 122.198 122.805 121.541 128.157C120.884 133.509 116.872 136.772 111.727 136.141ZM112.222 132.107C114.826 132.427 116.579 130.756 116.967 127.596C117.359 124.403 116.075 122.392 113.454 122.07C110.818 121.747 109.137 123.362 108.741 126.585C108.349 129.777 109.617 131.787 112.222 132.107Z" fill="white"/>
<path d="M86.8244 140.337L82.5048 139.807L85.5467 115.033L89.8662 115.563L89.6069 117.675C90.8063 116.178 92.5292 115.406 94.9748 115.707C99.3579 116.245 102.264 120.406 101.613 125.71C100.958 131.046 97.135 134.349 92.7519 133.811C90.3063 133.51 88.8213 132.345 88.0197 130.602L86.8244 140.337ZM92.2943 129.66C95.0576 129.999 96.6768 128.102 97.0395 125.149C97.4139 122.1 96.2582 119.959 93.5267 119.623C90.6999 119.276 89.1799 121.153 88.8133 124.139C88.435 127.219 89.5946 129.329 92.2943 129.66Z" fill="white"/>
<path d="M72.2641 127.265C74.0269 127.482 75.2383 126.937 76.0866 125.542L80.2619 127.248C78.5736 130.232 75.461 131.688 71.7767 131.235C66.5995 130.6 63.566 126.423 64.2172 121.119C64.8763 115.751 68.9177 112.507 73.9996 113.131C79.5578 113.814 82.0481 118.214 80.7597 124.375L68.7221 122.897C68.7851 125.403 70.0408 126.992 72.2641 127.265ZM69.243 119.705L76.7705 120.629C76.8613 118.577 75.6596 117.204 73.5316 116.943C71.4988 116.693 70.0047 117.702 69.243 119.705Z" fill="white"/>
<path d="M54.8958 128.679L46.6537 127.667L48.7596 110.516L56.3665 111.45C60.3049 111.933 62.2778 113.852 61.9131 116.822C61.6811 118.712 60.6912 119.815 59.2592 120.187C60.9177 120.859 61.7946 122.514 61.5333 124.642C61.153 127.739 58.8183 129.161 54.8958 128.679ZM56.0046 114.791L52.352 114.342L51.9309 117.772L55.5834 118.221C56.7745 118.367 57.6708 118.026 57.8268 116.755C57.9828 115.485 57.1957 114.937 56.0046 114.791ZM51.0651 124.823L55.3053 125.344C56.4963 125.49 57.414 124.974 57.57 123.704C57.726 122.433 56.9604 121.711 55.7693 121.564L51.5292 121.044L51.0651 124.823Z" fill="white"/>
<path d="M226.123 105.373L221.803 104.842L223.909 87.691L228.229 88.2214L231.924 98.0409L237.884 89.407L242.204 89.9373L240.098 107.089L235.778 106.558L236.892 97.4903L232.971 103.167L229.668 102.761L227.236 96.3047L226.123 105.373Z" fill="white"/>
<path d="M211.124 99.9845C212.887 100.201 214.098 99.6565 214.946 98.2615L219.122 99.9671C217.433 102.952 214.321 104.407 210.636 103.955C205.459 103.319 202.426 99.1422 203.077 93.838C203.736 88.4703 207.777 85.2267 212.859 85.8507C218.418 86.5331 220.908 90.9334 219.619 97.0943L207.582 95.6163C207.645 98.1227 208.901 99.7115 211.124 99.9845ZM208.103 92.424L215.63 93.3482C215.721 91.296 214.519 89.9233 212.391 89.662C210.359 89.4125 208.864 90.4219 208.103 92.424Z" fill="white"/>
<path d="M193.612 83.4873C198.63 84.1035 200.712 86.8416 200.076 92.0188L198.848 102.024L194.528 101.493L194.787 99.3811C193.479 100.978 191.643 101.623 189.165 101.318C185.751 100.899 183.706 98.5202 184.088 95.4076C184.491 92.1202 186.986 90.4438 191.517 90.4359L195.887 90.4244C196.008 88.5209 195.053 87.5009 193.147 87.267C191.274 87.0369 190.147 87.5434 189.46 88.942L185.686 87.3825C187.003 84.4008 189.816 83.0213 193.612 83.4873ZM195.509 93.5052L191.784 93.5153C189.656 93.5121 188.525 94.1952 188.359 95.5451C188.193 96.895 188.983 97.6851 190.682 97.8937C192.492 98.116 194.041 97.3228 194.755 96.2337C195.251 95.4725 195.386 94.5057 195.48 93.7434L195.509 93.5052Z" fill="white"/>
<path d="M155.923 96.7531L158.029 79.6019L162.349 80.1323L160.734 93.2816L166.292 93.964L167.907 80.8148L172.226 81.3451L170.612 94.4944L176.17 95.1769L177.785 82.0276L182.104 82.558L179.998 99.7092L155.923 96.7531Z" fill="white"/>
<path d="M151.503 96.2104L147.183 95.68L149.289 78.5288L153.609 79.0592L151.503 96.2104ZM138.973 94.6719L131.048 93.6989L133.154 76.5477L137.474 77.078L136.78 82.7316L140.384 83.1742C144.91 83.7299 146.586 86.6277 146.206 89.7245C145.825 92.8212 143.499 95.2276 138.973 94.6719ZM135.791 90.7831L138.713 91.1419C140.777 91.3954 141.714 90.4626 141.87 89.1921C142.026 87.9217 141.343 86.79 139.278 86.5365L136.356 86.1777L135.791 90.7831Z" fill="white"/>
<path d="M121.827 92.5666L113.585 91.5546L115.691 74.4034L123.298 75.3374C127.236 75.821 129.209 77.7398 128.844 80.7095C128.612 82.5993 127.622 83.7029 126.19 84.0751C127.849 84.7462 128.726 86.4014 128.464 88.5295C128.084 91.6262 125.749 93.0483 121.827 92.5666ZM122.936 78.6783L119.283 78.2298L118.862 81.66L122.515 82.1085C123.706 82.2547 124.602 81.9134 124.758 80.643C124.914 79.3725 124.127 78.8245 122.936 78.6783ZM117.996 88.7111L122.236 89.2317C123.427 89.3779 124.345 88.8619 124.501 87.5915C124.657 86.321 123.892 85.5983 122.7 85.4521L118.46 84.9314L117.996 88.7111Z" fill="white"/>
<path d="M101.363 90.5376C96.2337 89.9078 93.1467 85.7728 93.8038 80.421C94.4589 75.085 98.4725 71.8057 103.586 72.4336C108.731 73.0654 111.834 77.2024 111.177 82.5542C110.52 87.906 106.509 91.1694 101.363 90.5376ZM101.858 86.5039C104.463 86.8237 106.216 85.1529 106.604 81.9926C106.996 78.8006 105.711 76.789 103.091 76.4673C100.455 76.1436 98.7733 77.7588 98.3774 80.9826C97.9855 84.1746 99.254 86.1842 101.858 86.5039Z" fill="white"/>
<path d="M75.3505 86.8601L70.9992 86.3258L73.8071 63.4575L92.0699 65.6999L89.262 88.5682L84.9107 88.0339L87.2233 69.1993L77.6631 68.0255L75.3505 86.8601Z" fill="white"/>
</svg>
