<svg width="61" height="60" viewBox="0 0 61 60" fill="none" xmlns="http://www.w3.org/2000/svg">
<g clip-path="url(#clip0_128_229)">
<path fill-rule="evenodd" clip-rule="evenodd" d="M60.71 30C60.71 46.5685 47.2785 60 30.71 60C14.1414 60 0.709961 46.5685 0.709961 30C0.709961 13.4315 14.1414 0 30.71 0C47.2785 0 60.71 13.4315 60.71 30ZM31.785 22.1473C28.8671 23.361 23.0353 25.873 14.2897 29.6833C12.8695 30.2481 12.1256 30.8005 12.0579 31.3408C11.9434 32.2537 13.0867 32.6132 14.6436 33.1028C14.8554 33.1694 15.0748 33.2384 15.2998 33.3115C16.8316 33.8094 18.892 34.3919 19.9632 34.4151C20.9348 34.4361 22.0193 34.0355 23.2166 33.2133C31.3879 27.6975 35.6059 24.9095 35.8707 24.8494C36.0576 24.807 36.3165 24.7537 36.4919 24.9096C36.6673 25.0655 36.65 25.3608 36.6315 25.44C36.5182 25.9228 32.0303 30.0952 29.7078 32.2544C28.9837 32.9276 28.4701 33.405 28.3652 33.5141C28.13 33.7584 27.8903 33.9894 27.6599 34.2115C26.2369 35.5833 25.1697 36.6121 27.719 38.292C28.9441 39.0993 29.9244 39.7669 30.9024 40.4329C31.9704 41.1602 33.0357 41.8857 34.414 42.7892C34.7652 43.0194 35.1005 43.2584 35.4272 43.4913C36.6701 44.3774 37.7868 45.1735 39.1664 45.0466C39.9681 44.9728 40.7961 44.219 41.2166 41.9709C42.2105 36.6579 44.164 25.1461 44.6155 20.4024C44.6551 19.9868 44.6053 19.4549 44.5653 19.2214C44.5254 18.9879 44.4419 18.6553 44.1384 18.409C43.7789 18.1173 43.224 18.0558 42.9759 18.0602C41.8475 18.0801 40.1163 18.682 31.785 22.1473Z" fill="#808080"/>
</g>
<defs>
<clipPath id="clip0_128_229">
<rect width="60" height="60" fill="white" transform="translate(0.709961)"/>
</clipPath>
</defs>
</svg>
