<svg width="61" height="60" viewBox="0 0 61 60" fill="none" xmlns="http://www.w3.org/2000/svg">
<g clip-path="url(#clip0_128_227)">
<path fill-rule="evenodd" clip-rule="evenodd" d="M4.92762 4.21766C0.709961 8.43532 0.709961 15.2235 0.709961 28.8V31.2C0.709961 44.7765 0.709961 51.5646 4.92762 55.7824C9.14529 60 15.9335 60 29.51 60H31.91C45.4865 60 52.2746 60 56.4923 55.7824C60.71 51.5646 60.71 44.7765 60.71 31.2V28.8C60.71 15.2235 60.71 8.43532 56.4923 4.21766C52.2746 0 45.4865 0 31.91 0H29.51C15.9335 0 9.14529 0 4.92762 4.21766ZM10.8351 18.2501C11.1601 33.8501 18.9601 43.2251 32.6351 43.2251H33.4102V34.3001C38.4352 34.8001 42.235 38.4751 43.76 43.2251H50.8601C48.9101 36.1251 43.7848 32.2001 40.5848 30.7001C43.7848 28.8501 48.2848 24.3501 49.3598 18.2501H42.9097C41.5097 23.2001 37.3602 27.7001 33.4102 28.1251V18.2501H26.96V35.5501C22.96 34.5501 17.9101 29.7001 17.6851 18.2501H10.8351Z" fill="#808080"/>
</g>
<defs>
<clipPath id="clip0_128_227">
<rect width="60" height="60" fill="white" transform="translate(0.709961)"/>
</clipPath>
</defs>
</svg>
