<svg width="226" height="63" viewBox="0 0 226 63" fill="none" xmlns="http://www.w3.org/2000/svg">
<path d="M32.1728 63C49.5493 63 63.6357 48.9136 63.6357 31.5371C63.6357 14.1606 49.5493 0.0742188 32.1728 0.0742188C14.7964 0.0742188 0.709961 14.1606 0.709961 31.5371C0.709961 48.9136 14.7964 63 32.1728 63Z" fill="#58AF31"/>
<path fill-rule="evenodd" clip-rule="evenodd" d="M53.7498 22.0455L28.0784 47.7215L13.1161 32.7593L17.6645 28.2109L28.078 38.6244L49.201 17.4976L53.7498 22.0455Z" fill="white"/>
<path d="M89.3807 26.0371H85.7357V4.43711H94.2707C99.3707 4.43711 101.921 7.06211 101.921 11.4721C101.921 15.8671 99.3557 18.4921 94.2707 18.4921H89.3807V26.0371ZM89.3807 7.82711V15.1171H94.2407C96.8507 15.1171 98.2757 13.8121 98.2757 11.4721C98.2757 9.11711 96.8507 7.82711 94.2407 7.82711H89.3807ZM112.11 23.1571C113.955 23.1571 115.155 22.3771 115.875 20.8471L119.445 21.8671C118.2 24.8071 115.53 26.4871 112.11 26.4871C107.265 26.4871 104.025 22.9921 104.025 17.9371C104.025 12.8221 107.325 9.38711 112.08 9.38711C117.24 9.38711 120.045 13.1071 119.625 18.9421H107.91C108.225 21.6121 109.74 23.1571 112.11 23.1571ZM108 16.2121H115.95C115.77 13.9321 114.345 12.5971 112.08 12.5971C109.89 12.5971 108.45 13.9171 108 16.2121ZM122.942 26.0371V9.83711H126.557V22.6771H132.272V9.83711H135.887V22.6771H141.602V9.83711H145.217V26.0371H122.942ZM156.612 23.1571C158.457 23.1571 159.657 22.3771 160.377 20.8471L163.947 21.8671C162.702 24.8071 160.032 26.4871 156.612 26.4871C151.767 26.4871 148.527 22.9921 148.527 17.9371C148.527 12.8221 151.827 9.38711 156.582 9.38711C161.742 9.38711 164.547 13.1071 164.127 18.9421H152.412C152.727 21.6121 154.242 23.1571 156.612 23.1571ZM152.502 16.2121H160.452C160.272 13.9321 158.847 12.5971 156.582 12.5971C154.392 12.5971 152.952 13.9171 152.502 16.2121ZM171.059 26.0371H167.444V9.83711H171.059V16.2571H178.334V9.83711H181.949V26.0371H178.334V19.6171H171.059V26.0371ZM196.561 9.83711H200.176V26.0371H196.561V15.3871L189.721 26.0371H186.106V9.83711H189.721V20.4871L196.561 9.83711ZM207.313 26.0371H203.533L206.638 19.9021C204.643 19.0171 203.713 17.2171 203.713 15.1621C203.713 12.2371 205.603 9.83711 209.728 9.83711H217.138V26.0371H213.538V20.4871H210.133L207.313 26.0371ZM213.538 12.7621H210.283C208.198 12.7621 207.343 13.8121 207.343 15.1621C207.343 16.5121 208.198 17.5621 210.283 17.5621H213.538V12.7621ZM84.5357 62.5921V55.6771H86.1107C87.2057 54.4621 87.2207 50.9521 87.2207 48.3571V42.8371H99.9257V55.6771H102.026V62.5921H98.4107V59.0371H88.1507V62.5921H84.5357ZM89.8457 55.6771H96.3107V46.1971H90.5507V50.1121C90.5507 52.4221 90.2807 54.4621 89.8457 55.6771ZM103.513 59.2021V56.1271C103.768 56.2021 103.993 56.2321 104.203 56.2321C105.778 56.2321 106.243 54.1771 106.243 50.2771V42.8371H118.798V59.0371H115.183V46.1971H109.573V51.5371C109.573 57.0271 108.043 59.4871 105.283 59.4871C104.743 59.4871 104.158 59.3971 103.513 59.2021ZM125.926 59.0371H122.146L125.251 52.9021C123.256 52.0171 122.326 50.2171 122.326 48.1621C122.326 45.2371 124.216 42.8371 128.341 42.8371H135.751V59.0371H132.151V53.4871H128.746L125.926 59.0371ZM132.151 45.7621H128.896C126.811 45.7621 125.956 46.8121 125.956 48.1621C125.956 49.5121 126.811 50.5621 128.896 50.5621H132.151V45.7621ZM149.6 59.0371H145.97V37.4371H149.6V46.5271H159.815V37.4371H163.445V59.0371H159.815V49.9171H149.6V59.0371ZM167.65 59.0371V37.4371H171.295V47.4871L179.92 37.4371H184.36L175.075 48.0271L184.99 59.0371H180.4L171.295 48.9421V59.0371H167.65ZM195.33 59.4871C188.865 59.4871 184.995 54.9421 184.995 48.2371C184.995 41.5321 188.865 36.9871 195.33 36.9871C201.81 36.9871 205.68 41.5321 205.68 48.2371C205.68 54.9421 201.81 59.4871 195.33 59.4871ZM195.33 56.0821C199.68 56.0821 201.855 52.9621 201.855 48.2371C201.855 43.5121 199.68 40.3921 195.33 40.3921C190.98 40.3921 188.835 43.5121 188.82 48.2371C188.805 52.9621 190.98 56.0821 195.33 56.0821Z" fill="black"/>
</svg>
